<svg id="visual" viewBox="0 0 900 600" width="900" height="600" xmlns="http://www.w3.org/2000/svg" xmlns:xlink="http://www.w3.org/1999/xlink" version="1.1"><g stroke-width="1" stroke-linejoin="bevel"><path d="M438 282L427 239L384.7 300Z" fill="#33175e" stroke="#33175e"></path><path d="M427 239L360.7 221L384.7 300Z" fill="#3e1f6e" stroke="#3e1f6e"></path><path d="M518.3 255L431 198L427 239Z" fill="#442376" stroke="#442376"></path><path d="M427 239L431 198L360.7 221Z" fill="#4a277e" stroke="#4a277e"></path><path d="M308.4 253L338.4 316L384.7 300Z" fill="#391b66" stroke="#391b66"></path><path d="M384.7 300L452 349L438 282Z" fill="#4a277e" stroke="#4a277e"></path><path d="M338.4 316L380.7 359L384.7 300Z" fill="#442376" stroke="#442376"></path><path d="M452 349L490.3 305L438 282Z" fill="#2d1456" stroke="#2d1456"></path><path d="M438 282L518.3 255L427 239Z" fill="#502b87" stroke="#502b87"></path><path d="M380.7 359L452 349L384.7 300Z" fill="#442376" stroke="#442376"></path><path d="M360.7 221L308.4 253L384.7 300Z" fill="#391b66" stroke="#391b66"></path><path d="M431 198L397.7 159L360.7 221Z" fill="#502b87" stroke="#502b87"></path><path d="M360.7 221L328.4 168L308.4 253Z" fill="#3e1f6e" stroke="#3e1f6e"></path><path d="M490.3 305L518.3 255L438 282Z" fill="#442376" stroke="#442376"></path><path d="M431 198L460 140L397.7 159Z" fill="#502b87" stroke="#502b87"></path><path d="M274.1 347L322.4 353L338.4 316Z" fill="#442376" stroke="#442376"></path><path d="M338.4 316L322.4 353L380.7 359Z" fill="#3e1f6e" stroke="#3e1f6e"></path><path d="M361.7 144L328.4 168L360.7 221Z" fill="#3e1f6e" stroke="#3e1f6e"></path><path d="M397.7 159L361.7 144L360.7 221Z" fill="#28104e" stroke="#28104e"></path><path d="M524.3 178L460 140L431 198Z" fill="#33175e" stroke="#33175e"></path><path d="M397.7 159L395.7 76L361.7 144Z" fill="#2d1456" stroke="#2d1456"></path><path d="M400.7 430L425 411L380.7 359Z" fill="#4a277e" stroke="#4a277e"></path><path d="M380.7 359L425 411L452 349Z" fill="#442376" stroke="#442376"></path><path d="M452 349L534.3 343L490.3 305Z" fill="#28104e" stroke="#28104e"></path><path d="M242.1 102L273.1 196L328.4 168Z" fill="#5c3397" stroke="#5c3397"></path><path d="M328.4 168L273.1 196L308.4 253Z" fill="#502b87" stroke="#502b87"></path><path d="M308.4 253L274.1 347L338.4 316Z" fill="#5c3397" stroke="#5c3397"></path><path d="M518.3 255L524.3 178L431 198Z" fill="#502b87" stroke="#502b87"></path><path d="M496.3 420L534.3 343L452 349Z" fill="#3e1f6e" stroke="#3e1f6e"></path><path d="M490.3 305L534.3 343L518.3 255Z" fill="#2d1456" stroke="#2d1456"></path><path d="M518.3 255L596.6 200L524.3 178Z" fill="#391b66" stroke="#391b66"></path><path d="M241.1 285L274.1 347L308.4 253Z" fill="#33175e" stroke="#33175e"></path><path d="M335.4 436L400.7 430L380.7 359Z" fill="#3e1f6e" stroke="#3e1f6e"></path><path d="M395.7 76L339.4 125L361.7 144Z" fill="#4a277e" stroke="#4a277e"></path><path d="M361.7 144L339.4 125L328.4 168Z" fill="#502b87" stroke="#502b87"></path><path d="M335.4 436L380.7 359L322.4 353Z" fill="#3e1f6e" stroke="#3e1f6e"></path><path d="M425 411L496.3 420L452 349Z" fill="#5c3397" stroke="#5c3397"></path><path d="M237.1 229L241.1 285L308.4 253Z" fill="#28104e" stroke="#28104e"></path><path d="M205.9 168L237.1 229L273.1 196Z" fill="#28104e" stroke="#28104e"></path><path d="M273.1 196L237.1 229L308.4 253Z" fill="#562f8f" stroke="#562f8f"></path><path d="M494.3 474L496.3 420L425 411Z" fill="#562f8f" stroke="#562f8f"></path><path d="M574.6 366L582.6 289L534.3 343Z" fill="#562f8f" stroke="#562f8f"></path><path d="M534.3 343L582.6 289L518.3 255Z" fill="#28104e" stroke="#28104e"></path><path d="M255.1 409L335.4 436L322.4 353Z" fill="#442376" stroke="#442376"></path><path d="M457 53L395.7 76L460 140Z" fill="#4a277e" stroke="#4a277e"></path><path d="M460 140L395.7 76L397.7 159Z" fill="#33175e" stroke="#33175e"></path><path d="M335.4 436L404.7 461L400.7 430Z" fill="#562f8f" stroke="#562f8f"></path><path d="M400.7 430L404.7 461L425 411Z" fill="#6237a0" stroke="#6237a0"></path><path d="M173.9 244L212.9 315L241.1 285Z" fill="#502b87" stroke="#502b87"></path><path d="M241.1 285L212.9 315L274.1 347Z" fill="#33175e" stroke="#33175e"></path><path d="M274.1 347L255.1 409L322.4 353Z" fill="#391b66" stroke="#391b66"></path><path d="M496.3 420L574.6 366L534.3 343Z" fill="#28104e" stroke="#28104e"></path><path d="M637.9 320L602.6 258L582.6 289Z" fill="#502b87" stroke="#502b87"></path><path d="M582.6 289L602.6 258L518.3 255Z" fill="#442376" stroke="#442376"></path><path d="M563.6 123L524.3 104L524.3 178Z" fill="#3e1f6e" stroke="#3e1f6e"></path><path d="M524.3 178L524.3 104L460 140Z" fill="#2d1456" stroke="#2d1456"></path><path d="M602.6 258L596.6 200L518.3 255Z" fill="#2d1456" stroke="#2d1456"></path><path d="M196.9 358L255.1 409L274.1 347Z" fill="#391b66" stroke="#391b66"></path><path d="M384.7 540L432 490L404.7 461Z" fill="#2d1456" stroke="#2d1456"></path><path d="M596.6 200L563.6 123L524.3 178Z" fill="#5c3397" stroke="#5c3397"></path><path d="M513.3 74L457 53L460 140Z" fill="#33175e" stroke="#33175e"></path><path d="M513.3 74L460 140L524.3 104Z" fill="#391b66" stroke="#391b66"></path><path d="M242.1 102L328.4 168L339.4 125Z" fill="#28104e" stroke="#28104e"></path><path d="M242.1 102L205.9 168L273.1 196Z" fill="#562f8f" stroke="#562f8f"></path><path d="M237.1 229L173.9 244L241.1 285Z" fill="#562f8f" stroke="#562f8f"></path><path d="M592.6 37L513.3 74L524.3 104Z" fill="#33175e" stroke="#33175e"></path><path d="M336.4 502L404.7 461L335.4 436Z" fill="#562f8f" stroke="#562f8f"></path><path d="M404.7 461L432 490L425 411Z" fill="#2d1456" stroke="#2d1456"></path><path d="M496.3 420L570.6 429L574.6 366Z" fill="#442376" stroke="#442376"></path><path d="M432 490L494.3 474L425 411Z" fill="#33175e" stroke="#33175e"></path><path d="M152.6 309L196.9 358L212.9 315Z" fill="#562f8f" stroke="#562f8f"></path><path d="M212.9 315L196.9 358L274.1 347Z" fill="#3e1f6e" stroke="#3e1f6e"></path><path d="M205.9 168L173.9 244L237.1 229Z" fill="#5c3397" stroke="#5c3397"></path><path d="M331.4 45L242.1 102L339.4 125Z" fill="#6237a0" stroke="#6237a0"></path><path d="M331.4 45L339.4 125L395.7 76Z" fill="#3e1f6e" stroke="#3e1f6e"></path><path d="M566.6 472L570.6 429L496.3 420Z" fill="#562f8f" stroke="#562f8f"></path><path d="M574.6 366L637.9 320L582.6 289Z" fill="#5c3397" stroke="#5c3397"></path><path d="M388.7 0L331.4 45L395.7 76Z" fill="#28104e" stroke="#28104e"></path><path d="M198.9 457L273.1 465L255.1 409Z" fill="#28104e" stroke="#28104e"></path><path d="M255.1 409L273.1 465L335.4 436Z" fill="#562f8f" stroke="#562f8f"></path><path d="M666.9 362L637.9 320L574.6 366Z" fill="#562f8f" stroke="#562f8f"></path><path d="M602.6 258L660.9 238L596.6 200Z" fill="#33175e" stroke="#33175e"></path><path d="M196.9 358L204.9 406L255.1 409Z" fill="#5c3397" stroke="#5c3397"></path><path d="M144.6 422L204.9 406L196.9 358Z" fill="#33175e" stroke="#33175e"></path><path d="M273.1 465L336.4 502L335.4 436Z" fill="#4a277e" stroke="#4a277e"></path><path d="M199.9 68L214.9 109L242.1 102Z" fill="#28104e" stroke="#28104e"></path><path d="M242.1 102L214.9 109L205.9 168Z" fill="#33175e" stroke="#33175e"></path><path d="M122.6 182L112.6 250L173.9 244Z" fill="#442376" stroke="#442376"></path><path d="M112.6 250L152.6 309L173.9 244Z" fill="#562f8f" stroke="#562f8f"></path><path d="M173.9 244L152.6 309L212.9 315Z" fill="#442376" stroke="#442376"></path><path d="M637.9 320L660.9 238L602.6 258Z" fill="#33175e" stroke="#33175e"></path><path d="M596.6 200L622.9 129L563.6 123Z" fill="#391b66" stroke="#391b66"></path><path d="M654.9 162L622.9 129L596.6 200Z" fill="#28104e" stroke="#28104e"></path><path d="M592.6 37L523.3 0L513.3 74Z" fill="#442376" stroke="#442376"></path><path d="M278.1 548L341.4 520L336.4 502Z" fill="#562f8f" stroke="#562f8f"></path><path d="M336.4 502L384.7 540L404.7 461Z" fill="#5c3397" stroke="#5c3397"></path><path d="M565.6 542L566.6 472L494.3 474Z" fill="#2d1456" stroke="#2d1456"></path><path d="M494.3 474L566.6 472L496.3 420Z" fill="#442376" stroke="#442376"></path><path d="M653.9 405L666.9 362L574.6 366Z" fill="#442376" stroke="#442376"></path><path d="M436 534L494.3 474L432 490Z" fill="#33175e" stroke="#33175e"></path><path d="M331.4 45L249.1 54L242.1 102Z" fill="#3e1f6e" stroke="#3e1f6e"></path><path d="M384.7 540L436 534L432 490Z" fill="#28104e" stroke="#28104e"></path><path d="M461 0L388.7 0L457 53Z" fill="#28104e" stroke="#28104e"></path><path d="M457 53L388.7 0L395.7 76Z" fill="#562f8f" stroke="#562f8f"></path><path d="M331.4 45L257.1 0L249.1 54Z" fill="#562f8f" stroke="#562f8f"></path><path d="M461 0L457 53L523.3 0Z" fill="#502b87" stroke="#502b87"></path><path d="M660.9 238L654.9 162L596.6 200Z" fill="#28104e" stroke="#28104e"></path><path d="M341.4 520L384.7 540L336.4 502Z" fill="#2d1456" stroke="#2d1456"></path><path d="M523.3 0L457 53L513.3 74Z" fill="#3e1f6e" stroke="#3e1f6e"></path><path d="M388.7 0L330.4 0L331.4 45Z" fill="#5c3397" stroke="#5c3397"></path><path d="M204.9 406L198.9 457L255.1 409Z" fill="#391b66" stroke="#391b66"></path><path d="M273.1 465L278.1 548L336.4 502Z" fill="#2d1456" stroke="#2d1456"></path><path d="M299.4 600L390.7 600L384.7 540Z" fill="#28104e" stroke="#28104e"></path><path d="M144.6 422L198.9 457L204.9 406Z" fill="#3e1f6e" stroke="#3e1f6e"></path><path d="M653.9 405L574.6 366L570.6 429Z" fill="#2d1456" stroke="#2d1456"></path><path d="M637.9 320L705.1 300L660.9 238Z" fill="#28104e" stroke="#28104e"></path><path d="M650.9 466L653.9 405L570.6 429Z" fill="#28104e" stroke="#28104e"></path><path d="M211.9 0L199.9 68L249.1 54Z" fill="#391b66" stroke="#391b66"></path><path d="M249.1 54L199.9 68L242.1 102Z" fill="#33175e" stroke="#33175e"></path><path d="M120.6 106L122.6 182L205.9 168Z" fill="#562f8f" stroke="#562f8f"></path><path d="M122.6 182L173.9 244L205.9 168Z" fill="#28104e" stroke="#28104e"></path><path d="M152.6 309L124.6 378L196.9 358Z" fill="#33175e" stroke="#33175e"></path><path d="M592.6 37L563.6 123L621.9 52Z" fill="#442376" stroke="#442376"></path><path d="M592.6 37L524.3 104L563.6 123Z" fill="#33175e" stroke="#33175e"></path><path d="M120.6 106L205.9 168L214.9 109Z" fill="#33175e" stroke="#33175e"></path><path d="M621.9 52L563.6 123L622.9 129Z" fill="#391b66" stroke="#391b66"></path><path d="M85.3 315L124.6 378L152.6 309Z" fill="#4a277e" stroke="#4a277e"></path><path d="M124.6 378L144.6 422L196.9 358Z" fill="#391b66" stroke="#391b66"></path><path d="M666.9 362L705.1 300L637.9 320Z" fill="#502b87" stroke="#502b87"></path><path d="M660.9 238L696.1 180L654.9 162Z" fill="#6237a0" stroke="#6237a0"></path><path d="M718.1 350L705.1 300L666.9 362Z" fill="#442376" stroke="#442376"></path><path d="M705.1 300L704.1 215L660.9 238Z" fill="#4a277e" stroke="#4a277e"></path><path d="M700.1 51L621.9 52L622.9 129Z" fill="#4a277e" stroke="#4a277e"></path><path d="M330.4 0L257.1 0L331.4 45Z" fill="#4a277e" stroke="#4a277e"></path><path d="M704.1 215L696.1 180L660.9 238Z" fill="#33175e" stroke="#33175e"></path><path d="M179.9 517L273.1 465L198.9 457Z" fill="#3e1f6e" stroke="#3e1f6e"></path><path d="M179.9 517L278.1 548L273.1 465Z" fill="#442376" stroke="#442376"></path><path d="M714.1 118L622.9 129L654.9 162Z" fill="#442376" stroke="#442376"></path><path d="M592.6 37L602.6 0L523.3 0Z" fill="#5c3397" stroke="#5c3397"></path><path d="M566.6 472L650.9 466L570.6 429Z" fill="#3e1f6e" stroke="#3e1f6e"></path><path d="M653.9 405L718.1 350L666.9 362Z" fill="#6237a0" stroke="#6237a0"></path><path d="M565.6 542L650.9 466L566.6 472Z" fill="#2d1456" stroke="#2d1456"></path><path d="M457 600L524.3 561L436 534Z" fill="#6237a0" stroke="#6237a0"></path><path d="M436 534L524.3 561L494.3 474Z" fill="#28104e" stroke="#28104e"></path><path d="M390.7 600L436 534L384.7 540Z" fill="#28104e" stroke="#28104e"></path><path d="M524.3 561L565.6 542L494.3 474Z" fill="#5c3397" stroke="#5c3397"></path><path d="M112.6 250L85.3 315L152.6 309Z" fill="#391b66" stroke="#391b66"></path><path d="M124.6 378L55.3 407L144.6 422Z" fill="#562f8f" stroke="#562f8f"></path><path d="M56.3 233L85.3 315L112.6 250Z" fill="#442376" stroke="#442376"></path><path d="M691.1 444L718.1 350L653.9 405Z" fill="#2d1456" stroke="#2d1456"></path><path d="M705.1 300L751.4 276L704.1 215Z" fill="#562f8f" stroke="#562f8f"></path><path d="M118.6 41L120.6 106L199.9 68Z" fill="#28104e" stroke="#28104e"></path><path d="M199.9 68L120.6 106L214.9 109Z" fill="#562f8f" stroke="#562f8f"></path><path d="M122.6 182L82.3 174L112.6 250Z" fill="#502b87" stroke="#502b87"></path><path d="M257.1 0L211.9 0L249.1 54Z" fill="#5c3397" stroke="#5c3397"></path><path d="M299.4 600L384.7 540L341.4 520Z" fill="#5c3397" stroke="#5c3397"></path><path d="M647.9 0L602.6 0L621.9 52Z" fill="#502b87" stroke="#502b87"></path><path d="M621.9 52L602.6 0L592.6 37Z" fill="#562f8f" stroke="#562f8f"></path><path d="M120.6 106L82.3 174L122.6 182Z" fill="#502b87" stroke="#502b87"></path><path d="M125.6 486L198.9 457L144.6 422Z" fill="#391b66" stroke="#391b66"></path><path d="M125.6 486L179.9 517L198.9 457Z" fill="#28104e" stroke="#28104e"></path><path d="M278.1 548L299.4 600L341.4 520Z" fill="#28104e" stroke="#28104e"></path><path d="M390.7 600L457 600L436 534Z" fill="#28104e" stroke="#28104e"></path><path d="M524.3 561L580.6 600L565.6 542Z" fill="#391b66" stroke="#391b66"></path><path d="M685.1 487L691.1 444L650.9 466Z" fill="#502b87" stroke="#502b87"></path><path d="M650.9 466L691.1 444L653.9 405Z" fill="#442376" stroke="#442376"></path><path d="M0 303L73.3 354L85.3 315Z" fill="#5c3397" stroke="#5c3397"></path><path d="M85.3 315L73.3 354L124.6 378Z" fill="#28104e" stroke="#28104e"></path><path d="M747.4 199L714.1 118L696.1 180Z" fill="#28104e" stroke="#28104e"></path><path d="M696.1 180L714.1 118L654.9 162Z" fill="#33175e" stroke="#33175e"></path><path d="M747.4 199L696.1 180L704.1 215Z" fill="#6237a0" stroke="#6237a0"></path><path d="M457 600L501.3 600L524.3 561Z" fill="#3e1f6e" stroke="#3e1f6e"></path><path d="M683.1 518L685.1 487L650.9 466Z" fill="#33175e" stroke="#33175e"></path><path d="M751.4 378L751.4 276L718.1 350Z" fill="#4a277e" stroke="#4a277e"></path><path d="M718.1 350L751.4 276L705.1 300Z" fill="#4a277e" stroke="#4a277e"></path><path d="M248.1 600L299.4 600L278.1 548Z" fill="#562f8f" stroke="#562f8f"></path><path d="M82.3 174L56.3 233L112.6 250Z" fill="#442376" stroke="#442376"></path><path d="M758.4 244L747.4 199L704.1 215Z" fill="#442376" stroke="#442376"></path><path d="M69.3 479L125.6 486L144.6 422Z" fill="#33175e" stroke="#33175e"></path><path d="M179.9 517L248.1 600L278.1 548Z" fill="#6237a0" stroke="#6237a0"></path><path d="M77.3 72L88.3 108L120.6 106Z" fill="#28104e" stroke="#28104e"></path><path d="M120.6 106L88.3 108L82.3 174Z" fill="#2d1456" stroke="#2d1456"></path><path d="M0 156L0 231L56.3 233Z" fill="#391b66" stroke="#391b66"></path><path d="M751.4 276L758.4 244L704.1 215Z" fill="#4a277e" stroke="#4a277e"></path><path d="M683.1 518L650.9 466L664.9 543Z" fill="#33175e" stroke="#33175e"></path><path d="M691.1 444L751.4 378L718.1 350Z" fill="#5c3397" stroke="#5c3397"></path><path d="M700.1 51L647.9 0L621.9 52Z" fill="#5c3397" stroke="#5c3397"></path><path d="M132.6 0L118.6 41L199.9 68Z" fill="#5c3397" stroke="#5c3397"></path><path d="M763.4 396L751.4 378L691.1 444Z" fill="#28104e" stroke="#28104e"></path><path d="M838.7 226L826.7 187L758.4 244Z" fill="#442376" stroke="#442376"></path><path d="M193.9 600L248.1 600L179.9 517Z" fill="#28104e" stroke="#28104e"></path><path d="M762.4 63L700.1 51L714.1 118Z" fill="#3e1f6e" stroke="#3e1f6e"></path><path d="M714.1 118L700.1 51L622.9 129Z" fill="#6237a0" stroke="#6237a0"></path><path d="M0 344L55.3 407L73.3 354Z" fill="#33175e" stroke="#33175e"></path><path d="M73.3 354L55.3 407L124.6 378Z" fill="#6237a0" stroke="#6237a0"></path><path d="M664.9 543L650.9 466L565.6 542Z" fill="#391b66" stroke="#391b66"></path><path d="M756.4 458L763.4 396L691.1 444Z" fill="#33175e" stroke="#33175e"></path><path d="M501.3 600L580.6 600L524.3 561Z" fill="#28104e" stroke="#28104e"></path><path d="M637.9 600L664.9 543L565.6 542Z" fill="#33175e" stroke="#33175e"></path><path d="M118.6 41L77.3 72L120.6 106Z" fill="#3e1f6e" stroke="#3e1f6e"></path><path d="M0 156L56.3 233L82.3 174Z" fill="#4a277e" stroke="#4a277e"></path><path d="M69.3 479L127.6 530L125.6 486Z" fill="#2d1456" stroke="#2d1456"></path><path d="M125.6 486L127.6 530L179.9 517Z" fill="#502b87" stroke="#502b87"></path><path d="M211.9 0L132.6 0L199.9 68Z" fill="#28104e" stroke="#28104e"></path><path d="M118.6 41L73.3 0L77.3 72Z" fill="#3e1f6e" stroke="#3e1f6e"></path><path d="M756.4 458L691.1 444L685.1 487Z" fill="#3e1f6e" stroke="#3e1f6e"></path><path d="M852.7 324L838.7 226L751.4 276Z" fill="#502b87" stroke="#502b87"></path><path d="M127.6 530L193.9 600L179.9 517Z" fill="#2d1456" stroke="#2d1456"></path><path d="M55.3 407L69.3 479L144.6 422Z" fill="#33175e" stroke="#33175e"></path><path d="M127.6 530L115.6 600L193.9 600Z" fill="#562f8f" stroke="#562f8f"></path><path d="M683.1 518L756.4 458L685.1 487Z" fill="#33175e" stroke="#33175e"></path><path d="M773.4 564L756.4 458L683.1 518Z" fill="#3e1f6e" stroke="#3e1f6e"></path><path d="M56.3 233L0 303L85.3 315Z" fill="#502b87" stroke="#502b87"></path><path d="M55.3 407L0 422L69.3 479Z" fill="#391b66" stroke="#391b66"></path><path d="M0 231L0 303L56.3 233Z" fill="#5c3397" stroke="#5c3397"></path><path d="M0 156L82.3 174L88.3 108Z" fill="#3e1f6e" stroke="#3e1f6e"></path><path d="M826.7 187L779.4 114L747.4 199Z" fill="#4a277e" stroke="#4a277e"></path><path d="M747.4 199L779.4 114L714.1 118Z" fill="#5c3397" stroke="#5c3397"></path><path d="M700.1 51L715.1 0L647.9 0Z" fill="#5c3397" stroke="#5c3397"></path><path d="M826.7 187L747.4 199L758.4 244Z" fill="#3e1f6e" stroke="#3e1f6e"></path><path d="M580.6 600L637.9 600L565.6 542Z" fill="#442376" stroke="#442376"></path><path d="M664.9 543L683.1 600L683.1 518Z" fill="#5c3397" stroke="#5c3397"></path><path d="M0 303L0 344L73.3 354Z" fill="#6237a0" stroke="#6237a0"></path><path d="M762.4 63L715.1 0L700.1 51Z" fill="#6237a0" stroke="#6237a0"></path><path d="M779.4 114L762.4 63L714.1 118Z" fill="#5c3397" stroke="#5c3397"></path><path d="M0 95L0 156L88.3 108Z" fill="#33175e" stroke="#33175e"></path><path d="M0 95L88.3 108L77.3 72Z" fill="#442376" stroke="#442376"></path><path d="M132.6 0L73.3 0L118.6 41Z" fill="#442376" stroke="#442376"></path><path d="M838.7 226L758.4 244L751.4 276Z" fill="#391b66" stroke="#391b66"></path><path d="M779.4 114L816.7 83L762.4 63Z" fill="#391b66" stroke="#391b66"></path><path d="M751.4 276L751.4 378L852.7 324Z" fill="#442376" stroke="#442376"></path><path d="M0 344L0 422L55.3 407Z" fill="#502b87" stroke="#502b87"></path><path d="M54.3 554L115.6 600L127.6 530Z" fill="#28104e" stroke="#28104e"></path><path d="M637.9 600L683.1 600L664.9 543Z" fill="#442376" stroke="#442376"></path><path d="M852.7 324L751.4 378L858.7 337Z" fill="#5c3397" stroke="#5c3397"></path><path d="M0 84L0 95L77.3 72Z" fill="#6237a0" stroke="#6237a0"></path><path d="M816.7 83L811.7 106L900 134Z" fill="#442376" stroke="#442376"></path><path d="M826.7 187L811.7 106L779.4 114Z" fill="#4a277e" stroke="#4a277e"></path><path d="M762.4 63L769.4 0L715.1 0Z" fill="#4a277e" stroke="#4a277e"></path><path d="M54.3 554L127.6 530L69.3 479Z" fill="#5c3397" stroke="#5c3397"></path><path d="M0 0L0 84L77.3 72Z" fill="#28104e" stroke="#28104e"></path><path d="M0 518L54.3 554L69.3 479Z" fill="#442376" stroke="#442376"></path><path d="M900 134L811.7 106L826.7 187Z" fill="#4a277e" stroke="#4a277e"></path><path d="M811.7 106L816.7 83L779.4 114Z" fill="#3e1f6e" stroke="#3e1f6e"></path><path d="M858.7 337L751.4 378L763.4 396Z" fill="#2d1456" stroke="#2d1456"></path><path d="M826.7 444L763.4 396L756.4 458Z" fill="#391b66" stroke="#391b66"></path><path d="M817.7 0L769.4 0L762.4 63Z" fill="#4a277e" stroke="#4a277e"></path><path d="M0 422L0 475L69.3 479Z" fill="#28104e" stroke="#28104e"></path><path d="M834.7 535L826.7 444L756.4 458Z" fill="#391b66" stroke="#391b66"></path><path d="M826.7 444L858.7 337L763.4 396Z" fill="#391b66" stroke="#391b66"></path><path d="M852.7 324L900 277L838.7 226Z" fill="#28104e" stroke="#28104e"></path><path d="M900 67L817.7 0L816.7 83Z" fill="#5c3397" stroke="#5c3397"></path><path d="M752.4 600L773.4 564L683.1 518Z" fill="#5c3397" stroke="#5c3397"></path><path d="M0 600L64.3 600L54.3 554Z" fill="#502b87" stroke="#502b87"></path><path d="M54.3 554L64.3 600L115.6 600Z" fill="#6237a0" stroke="#6237a0"></path><path d="M0 475L0 518L69.3 479Z" fill="#2d1456" stroke="#2d1456"></path><path d="M683.1 600L752.4 600L683.1 518Z" fill="#6237a0" stroke="#6237a0"></path><path d="M73.3 0L0 0L77.3 72Z" fill="#2d1456" stroke="#2d1456"></path><path d="M834.7 535L756.4 458L773.4 564Z" fill="#3e1f6e" stroke="#3e1f6e"></path><path d="M834.7 535L853.7 455L826.7 444Z" fill="#391b66" stroke="#391b66"></path><path d="M826.7 444L900 378L858.7 337Z" fill="#2d1456" stroke="#2d1456"></path><path d="M900 201L826.7 187L838.7 226Z" fill="#4a277e" stroke="#4a277e"></path><path d="M816.7 83L817.7 0L762.4 63Z" fill="#2d1456" stroke="#2d1456"></path><path d="M900 378L900 277L858.7 337Z" fill="#502b87" stroke="#502b87"></path><path d="M858.7 337L900 277L852.7 324Z" fill="#5c3397" stroke="#5c3397"></path><path d="M900 277L900 222L838.7 226Z" fill="#6237a0" stroke="#6237a0"></path><path d="M900 222L900 201L838.7 226Z" fill="#5c3397" stroke="#5c3397"></path><path d="M859.7 600L834.7 535L773.4 564Z" fill="#5c3397" stroke="#5c3397"></path><path d="M900 422L900 378L826.7 444Z" fill="#562f8f" stroke="#562f8f"></path><path d="M900 422L826.7 444L853.7 455Z" fill="#5c3397" stroke="#5c3397"></path><path d="M900 201L900 134L826.7 187Z" fill="#6237a0" stroke="#6237a0"></path><path d="M900 487L900 422L853.7 455Z" fill="#562f8f" stroke="#562f8f"></path><path d="M0 518L0 600L54.3 554Z" fill="#28104e" stroke="#28104e"></path><path d="M900 134L900 67L816.7 83Z" fill="#562f8f" stroke="#562f8f"></path><path d="M900 544L900 487L834.7 535Z" fill="#502b87" stroke="#502b87"></path><path d="M834.7 535L900 487L853.7 455Z" fill="#502b87" stroke="#502b87"></path><path d="M900 67L900 0L817.7 0Z" fill="#391b66" stroke="#391b66"></path><path d="M752.4 600L859.7 600L773.4 564Z" fill="#391b66" stroke="#391b66"></path><path d="M859.7 600L900 544L834.7 535Z" fill="#391b66" stroke="#391b66"></path><path d="M859.7 600L900 600L900 544Z" fill="#2d1456" stroke="#2d1456"></path></g></svg>