<svg xmlns="http://www.w3.org/2000/svg" width="110%" height="110%">
    <defs>
        <linearGradient id="Gradient1" x1="0%" y1="0%" x2="0%" y2="100%">
            <stop offset="0%" style="stop-color:#28104E;stop-opacity:1" />
            <stop offset="100%" style="stop-color:#c87ddb;stop-opacity:1" />
        </linearGradient>
    </defs>

    <!-- You can adjust these lines further to achieve the desired appearance -->
    <line x1="10%" y1="-10" x2="110%" y2="10%" stroke="url(#Gradient1)" stroke-width="5" />
    <line x1="20%" y1="-10" x2="110%" y2="49%" stroke="url(#Gradient1)" stroke-width="3" />
    <line x1="30%" y1="-10" x2="110%" y2="06%" stroke="url(#Gradient1)" stroke-width="7" />
    <line x1="40%" y1="-10" x2="110%" y2="49%" stroke="url(#Gradient1)" stroke-width="3" />
    <line x1="50%" y1="-10" x2="110%" y2="97%" stroke="url(#Gradient1)" stroke-width="0" />
    <line x1="60%" y1="-10" x2="110%" y2="14%" stroke="url(#Gradient1)" stroke-width="4" />
    <line x1="70%" y1="-10" x2="110%" y2="64%" stroke="url(#Gradient1)" stroke-width="5" />
    <line x1="80%" y1="-10" x2="110%" y2="35%" stroke="url(#Gradient1)" stroke-width="3" />
    <line x1="90%" y1="0" x2="110%" y2="28%" stroke="url(#Gradient1)" stroke-width="7" />
    <line x1="100%" y1="0" x2="110%" y2="83%" stroke="url(#Gradient1)" stroke-width="2" />
    <line x1="5%" y1="0" x2="110%" y2="62%" stroke="url(#Gradient1)" stroke-width="3" />
    <line x1="85%" y1="0" x2="110%" y2="05%" stroke="url(#Gradient1)" stroke-width="4" />
    <line x1="10%" y1="0" x2="110%" y2="94%" stroke="url(#Gradient1)" stroke-width="2" />
    <line x1="40%" y1="0" x2="110%" y2="27%" stroke="url(#Gradient1)" stroke-width="8" />
    <line x1="75%" y1="0" x2="110%" y2="85%" stroke="url(#Gradient1)" stroke-width="2" />
    <line x1="15%" y1="0" x2="110%" y2="48%" stroke="url(#Gradient1)" stroke-width="4" />
    <line x1="55%" y1="0" x2="110%" y2="38%" stroke="url(#Gradient1)" stroke-width="2" />
    <line x1="30%" y1="0" x2="110%" y2="84%" stroke="url(#Gradient1)" stroke-width="3" />
    <line x1="65%" y1="0" x2="110%" y2="32%" stroke="url(#Gradient1)" stroke-width="6" />
    <line x1="25%" y1="0" x2="110%" y2="48%" stroke="url(#Gradient1)" stroke-width="10" />
    <line x1="5%" y1="0" x2="110%" y2="48%" stroke="url(#Gradient1)" stroke-width="3" />
    <line x1="85%" y1="0" x2="110%" y2="48%" stroke="url(#Gradient1)" stroke-width="4" />
    <line x1="10%" y1="0%" x2="110%" y2="39%" stroke="url(#Gradient1)" stroke-width="10" />
    <line x1="5%" y1="0%" x2="110%" y2="30%" stroke="url(#Gradient1)" stroke-width="3" />
    <line x1="85%" y1="0%" x2="110%" y2="87%" stroke="url(#Gradient1)" stroke-width="4" />
    <!-- Add more lines with different angles and thicknesses... -->
</svg>